# This file uses centimeters as units for non-parametric coordinates.

mtllib diamond.mtl
g default
v 0.000080 -0.350000 0.000070
v -0.134920 0.000000 -0.134930
v 0.135080 0.000000 -0.134930
v 0.135080 -0.000000 0.135071
v -0.134920 -0.000000 0.135071
g diamond:Mesh2
v 0.000080 0.350000 0.000070
g default
v -0.134920 0.000000 0.135071
v 0.135080 0.000000 0.135071
v 0.135080 0.000000 -0.134930
v -0.134920 0.000000 -0.134930
vt 5.314960 14.769000
vt 0.000000 0.000000
vt 10.629900 0.000000
vt -10.629900 10.629900
vt -10.629900 0.000000
vt 0.000000 10.629900
vt -5.314960 14.769000
vt -5.314960 10.943600
vt -10.629900 -3.825410
vt 0.000000 -3.825410
vt 10.629900 -3.825410
vt 5.314960 10.943600
vt -10.629900 0.000000
vt -10.629900 0.000000
vt 0.000000 -3.825410
vt 0.000000 -3.825410
vt 5.314960 14.769000
vt 0.000000 0.000000
vt 10.629900 0.000000
vt 10.629900 0.000000
vt 0.000000 0.000000
vt 5.314960 14.769000
vt 0.000000 0.000000
vt -10.629900 10.629900
vt -10.629900 0.000000
vt -10.629900 10.629900
vt 0.000000 0.000000
vt 0.000000 10.629900
vt 0.000000 10.629900
vt 0.000000 0.000000
vt -10.629900 10.629900
vt -10.629900 0.000000
vt 0.000000 0.000000
vt -5.314960 14.769000
vt -5.314960 14.769000
vt 0.000000 0.000000
vt -10.629900 0.000000
vt -5.314960 10.943600
vt -10.629900 -3.825410
vt 0.000000 -3.825410
vt 0.000000 -3.825410
vt -10.629900 -3.825410
vt -5.314960 10.943600
vt 10.629900 -3.825410
vt 5.314960 10.943600
vt 0.000000 -3.825410
vt 0.000000 -3.825410
vt 5.314960 10.943600
vt 10.629900 -3.825410
vt -10.629900 0.000000
vt -10.629900 10.629900
vt 0.000000 0.000000
vn 0.000000 -0.359872 -0.933002
vn 0.000000 -0.359872 -0.933002
vn 0.000000 -0.359872 -0.933002
vn 0.000000 0.359872 0.933002
vn 0.000000 0.359872 0.933002
vn 0.000000 0.359872 0.933002
vn 0.000000 1.000000 0.000000
vn 0.000000 1.000000 0.000000
vn 0.000000 1.000000 0.000000
vn 0.000000 1.000000 0.000000
vn 0.000000 1.000000 0.000000
vn 0.000000 1.000000 0.000000
vn 0.000000 -1.000000 -0.000000
vn 0.000000 -1.000000 -0.000000
vn 0.000000 -1.000000 -0.000000
vn -0.933002 -0.359872 -0.000000
vn -0.933002 -0.359872 -0.000000
vn -0.933002 -0.359872 -0.000000
vn 0.933002 0.359872 0.000000
vn 0.933002 0.359872 0.000000
vn 0.933002 0.359872 0.000000
vn 0.000000 -0.359872 0.933002
vn 0.000000 -0.359872 0.933002
vn 0.000000 -0.359872 0.933002
vn -0.000000 0.359872 -0.933002
vn -0.000000 0.359872 -0.933002
vn -0.000000 0.359872 -0.933002
vn 0.933002 -0.359872 -0.000000
vn 0.933002 -0.359872 -0.000000
vn 0.933002 -0.359872 -0.000000
vn -0.933002 0.359872 0.000000
vn -0.933002 0.359872 0.000000
vn -0.933002 0.359872 0.000000
vn 0.000000 -1.000000 -0.000000
vn 0.000000 -1.000000 -0.000000
vn 0.000000 -1.000000 -0.000000
vn 0.000000 0.359872 0.933002
vn 0.000000 0.359872 0.933002
vn 0.000000 0.359872 0.933002
vn 0.000000 -0.359872 -0.933002
vn 0.000000 -0.359872 -0.933002
vn 0.000000 -0.359872 -0.933002
vn 0.000000 -1.000000 0.000000
vn 0.000000 -1.000000 0.000000
vn 0.000000 -1.000000 0.000000
vn 0.000000 -1.000000 0.000000
vn 0.000000 -1.000000 0.000000
vn 0.000000 -1.000000 0.000000
vn 0.000000 1.000000 0.000000
vn 0.000000 1.000000 0.000000
vn 0.000000 1.000000 0.000000
vn -0.933002 0.359872 -0.000000
vn -0.933002 0.359872 -0.000000
vn -0.933002 0.359872 -0.000000
vn 0.933002 -0.359872 0.000000
vn 0.933002 -0.359872 0.000000
vn 0.933002 -0.359872 0.000000
vn 0.000000 0.359872 -0.933002
vn 0.000000 0.359872 -0.933002
vn 0.000000 0.359872 -0.933002
vn 0.000000 -0.359872 0.933002
vn 0.000000 -0.359872 0.933002
vn 0.000000 -0.359872 0.933002
vn 0.933002 0.359872 0.000000
vn 0.933002 0.359872 0.000000
vn 0.933002 0.359872 0.000000
vn -0.933002 -0.359872 0.000000
vn -0.933002 -0.359872 0.000000
vn -0.933002 -0.359872 0.000000
vn 0.000000 1.000000 0.000000
vn 0.000000 1.000000 0.000000
vn 0.000000 1.000000 0.000000
s off
g diamond:Group1 diamond:Group2 diamond:Mesh1 diamond:Model diamond:polySurface1
usemtl diamond:FrontColor
f 1/1/1 2/2/2 3/3/3
usemtl diamond:BackColor
f 3/3/4 2/2/5 1/1/6
usemtl diamond:FrontColor
f 2/2/7 4/4/8 3/5/9
f 4/4/10 2/2/11 5/6/12
usemtl diamond:BackColor
f 5/6/13 2/2/14 4/4/15
usemtl diamond:FrontColor
f 5/13/16 2/2/17 1/7/18
usemtl diamond:BackColor
f 1/7/19 2/2/20 5/14/21
usemtl diamond:FrontColor
f 1/8/22 4/9/23 5/10/24
usemtl diamond:BackColor
f 5/10/25 4/9/26 1/8/27
usemtl diamond:FrontColor
f 4/11/28 1/12/29 3/15/30
usemtl diamond:BackColor
f 3/16/31 1/12/32 4/11/33
f 3/5/34 4/4/35 2/2/36
g diamond:Group1 diamond:Group3 diamond:Mesh3 diamond:Model diamond:polySurface1
usemtl diamond:FrontColor
f 6/17/37 7/18/38 8/19/39
usemtl diamond:BackColor
f 8/20/40 7/21/41 6/22/42
usemtl diamond:FrontColor
f 7/23/43 9/24/44 8/25/45
f 9/26/46 7/27/47 10/28/48
usemtl diamond:BackColor
f 10/29/49 7/30/50 9/31/51
usemtl diamond:FrontColor
f 10/32/52 7/33/53 6/34/54
usemtl diamond:BackColor
f 6/35/55 7/36/56 10/37/57
usemtl diamond:FrontColor
f 6/38/58 9/39/59 10/40/60
usemtl diamond:BackColor
f 10/41/61 9/42/62 6/43/63
usemtl diamond:FrontColor
f 9/44/64 6/45/65 8/46/66
usemtl diamond:BackColor
f 8/47/67 6/48/68 9/49/69
f 8/50/70 9/51/71 7/52/72
